# Apple ModelIO OBJ File: cube
mtllib floor.mtl
g 
v -1.0 -1.0 1.0
v 1.0 1.0 1.0
v -1.0 1.0 1.0
v 1.0 -1.0 1.0
v 1.0 -1.0 1.0
v 1.0 1.0 -1.0
v 1.0 1.0 1.0
v 1.0 -1.0 -1.0
v -1.0 1.0 -1.0
v -1.0 -1.0 -1.0
v -1.0 1.0 1.0
v 1.0 1.0 -1.0
vn 0 0 1
vn 1 0 0
vn 0 0 -1
vn -1 0 0
vn 0 1 0
vn 0 -1 0
vt 0 0
vt 1 1
vt 0 1
vt 1 0
usemtl Material.002
f 1/1/1 2/2/1 3/3/1
f 1/1/1 4/4/1 2/2/1
f 5/1/2 6/2/2 7/3/2
f 5/1/2 8/4/2 6/2/2
f 8/1/3 9/2/3 6/3/3
f 8/1/3 10/4/3 9/2/3
f 10/1/4 3/2/4 9/3/4
f 10/1/4 1/4/4 3/2/4
f 11/1/5 12/2/5 9/3/5
f 11/1/5 7/4/5 12/2/5
f 10/1/6 5/2/6 1/3/6
f 10/1/6 8/4/6 5/2/6
s off
